<svg xmlns="http://www.w3.org/2000/svg" width="724" height="187" viewBox="-100 -50 724 187" fill="none">
<path d="M1.66634e-06 34.8724C0.0873307 34.4255 0.230666 34.2071 0.547231 33.8812C0.85851 33.7605 0.85851 33.7605 1.22457 33.702C1.43628 33.6665 1.43628 33.6665 1.65227 33.6304C2.20317 33.5539 2.75467 33.4833 3.30641 33.4131C4.05458 33.3176 4.77606 33.1969 5.50778 33.0146C6.58411 32.7496 7.66939 32.6023 8.76757 32.4612C9.56218 32.3561 10.2949 32.1933 11.066 31.9687C11.4942 31.8848 11.9237 31.8099 12.3535 31.7347C13.1211 31.5951 13.8811 31.4239 14.642 31.2516C14.7959 31.2177 14.9499 31.1838 15.1086 31.1488C15.2568 31.1154 15.405 31.0819 15.5577 31.0474C15.6901 31.0177 15.8225 30.988 15.9589 30.9574C17.733 30.4525 19.5509 30.0677 21.3413 29.5531C22.219 29.3015 23.0998 29.0837 23.9922 28.889C24.3187 28.8127 24.643 28.7266 24.9652 28.6337C25.7161 28.4208 26.4729 28.2422 27.2326 28.0641C27.5213 27.9961 27.8099 27.928 28.0986 27.8599C28.3056 27.8111 28.3056 27.8111 28.5168 27.7614C28.8886 27.6722 29.2587 27.5781 29.6288 27.4826C31.2434 27.0928 32.5479 26.5047 34.4343 26.1516C35.3188 25.9827 36.139 25.7502 36.9868 25.4512C41.1841 24.07 45.4811 23.125 49.7642 22.0676C49.9306 22.0272 50.097 21.9867 50.2684 21.9451C50.4252 21.9062 50.582 21.8673 50.7435 21.8273C50.8832 21.7929 51.0228 21.7586 51.1667 21.7232C51.5347 21.6131 51.8426 21.4623 52.1847 21.2906C52.4997 21.206 52.4997 21.206 52.8309 21.1425C52.9554 21.1176 53.0799 21.0927 53.2082 21.0671C53.4626 21.0181 53.717 20.9691 53.9715 20.9202C55.149 20.6851 56.2924 20.3535 57.4441 20.0156C57.8084 19.911 58.1728 19.8066 58.5373 19.7025C58.7169 19.6511 58.8965 19.5996 59.0815 19.5466C59.2644 19.4943 59.4472 19.442 59.6355 19.3881C59.8287 19.3328 60.0219 19.2775 60.2209 19.2205C61.4307 18.8748 62.6413 18.5327 63.856 18.2043C64.3994 18.0557 64.9335 17.8916 65.4658 17.7078C66.3978 17.3925 67.3521 17.187 68.3109 16.9707C69.1014 16.7884 69.8621 16.5728 70.6286 16.308C71.2838 16.0958 71.9539 15.9467 72.6246 15.7922C72.7705 15.7579 72.9165 15.7236 73.0669 15.6883C73.7066 15.5385 74.3467 15.3912 74.9878 15.2474C75.1678 15.207 75.3477 15.1665 75.5332 15.1248C75.7624 15.0746 75.7624 15.0746 75.9963 15.0233C76.4056 14.9273 76.4056 14.9273 76.7609 14.7675C77.5724 14.4569 78.4304 14.301 79.2766 14.1097C79.9733 13.9488 80.6515 13.775 81.3273 13.5404C81.8246 13.3683 82.2654 13.264 82.7947 13.2422C83.4117 13.1951 83.8915 13.0555 84.4656 12.8151C85.0039 12.6351 85.554 12.5429 86.1117 12.4453C87.2724 12.2412 88.3686 11.9519 89.4785 11.5588C90.0165 11.3907 90.5528 11.287 91.1058 11.1809C92.0587 10.9874 93.0129 10.7682 93.9323 10.45C94.4466 10.2849 94.9421 10.1925 95.475 10.1045C97.3233 9.78067 99.1355 9.28749 100.952 8.82221C101.353 8.72008 101.754 8.62037 102.156 8.52195C102.603 8.40761 103.036 8.27865 103.474 8.13222C104.055 7.9528 104.59 7.86454 105.197 7.82344C105.873 7.77684 106.405 7.64555 107.028 7.38702C107.793 7.07751 108.534 6.94471 109.351 6.89707C110.392 6.81788 111.376 6.55232 112.386 6.30023C113.485 6.03068 114.581 5.83876 115.699 5.67604C116.503 5.55663 117.266 5.38448 118.045 5.15013C118.504 5.02922 118.954 4.95607 119.425 4.88994C120.594 4.71591 121.749 4.48522 122.907 4.24746C124.213 3.98157 125.518 3.71915 126.832 3.50039C127.912 3.31798 128.956 3.05938 130.01 2.76639C131.35 2.48648 131.915 2.32275 133.207 2.18555C133.33 2.17301 133.454 2.16048 133.581 2.14757C134.37 2.06282 135.138 1.93415 135.914 1.77209C136.85 1.58376 137.795 1.44214 138.738 1.28906C139.481 1.16705 140.22 1.03951 140.957 0.880662C142.013 0.664566 143.082 0.611871 144.157 0.538255C145.064 0.470745 145.931 0.353074 146.821 0.161919C148.06 -0.0783469 149.823 -0.0942986 150.997 0.412498C152.345 2.76585 149.976 2.5892 148.607 3.44062C144.874 4.56055 142.576 4.91541 138.734 5.50398C136.165 5.89557 133.356 6.33629 130.597 7.10625C130.238 7.18826 129.879 7.26543 129.518 7.34095C125.099 8.32477 120.487 8.90799 116.14 10.1736C115.785 10.2603 115.785 10.2603 115.616 10.4531C115.285 10.507 114.953 10.5515 114.62 10.5926C113.862 10.6879 113.106 10.7879 112.35 10.8989C112.201 10.9207 112.053 10.9425 111.899 10.9649C111.605 11.0083 111.311 11.052 111.018 11.0961C109.419 11.3301 108.817 11.6255 107.239 11.9572C107.066 11.9939 106.893 12.0306 106.714 12.0684C105.268 12.3716 105.268 12.3716 104.585 12.4609C104.157 12.4775 104.157 12.4775 103.982 12.6844C102.578 13.0549 101.147 13.2574 99.7119 13.4602C98.8379 13.5878 98.0017 13.7602 97.159 14.031C96.0944 14.2985 95.7763 14.5014 94.6283 14.8061C94.5012 14.8401 94.3741 14.8741 94.2432 14.9091C93.3275 15.1516 92.4077 15.369 91.4842 15.5799C90.5158 15.8047 89.551 16.0441 88.5864 16.2846C88.2372 16.3714 87.8879 16.4575 87.5386 16.5436C87.3161 16.599 87.0937 16.6544 86.8712 16.7098C86.2114 16.8735 85.6509 17.1589 84.9961 17.1967C83.8519 17.302 82.7697 17.6309 81.6691 17.9437C78.83 18.7391 78.83 18.7391 77.7246 19.0295C77.5138 19.0853 77.5138 19.0853 77.2987 19.1422C75.1283 19.5467 72.9955 20.3522 70.5496 20.8853C69.0919 21.1833 68.3835 21.6447 66.9369 21.8982C66.1419 22.0499 65.396 22.2971 64.6317 22.5604C62.898 23.1518 61.1207 23.6079 59.3417 24.0405C58.8243 24.1733 58.3145 24.3254 57.8027 24.4781C56.7714 24.7791 55.7442 24.9741 54.6855 25.1461C52.2093 25.608 50.7649 26.3632 48.3498 26.9484C47.6656 27.1147 46.9983 27.3116 46.3277 27.5262C45.4366 27.8083 44.317 27.7255 43.5785 28.3031C38.9102 29.1841 34.59 31.2771 29.8374 31.8028C29.4939 31.8398 29.1502 31.8756 28.8064 31.9099C27.6856 32.0368 26.7541 32.3026 25.7285 32.7656C25.3059 32.9318 24.8804 33.0889 24.4535 33.2437C24.3388 33.2867 24.2242 33.3296 24.1061 33.3739C21.6879 34.2399 18.6091 34.9948 16.0763 35.4152C15.964 35.4351 15.8516 35.455 15.7358 35.4755C13.4088 35.874 11.8211 36.3558 9.38196 36.6388C7.29054 36.8867 5.18267 37.5659 3.09723 37.5768C2.9 37.579 2.70278 37.5813 2.49957 37.5836C1.4313 37.5078 -0.00178359 35.915 1.66634e-06 34.8724Z" fill="currentColor"/>
<path d="M55.2126 31.6499C55.4729 31.2266 55.4729 31.2266 55.8501 30.8531C56.7952 30.6518 57.8004 30.7313 58.679 31.1419C59.1745 31.4754 60.0045 32.3102 60.2628 32.8652C60.6662 34.1952 60.7701 35.8947 60.8605 37.248C61.021 39.2386 61.5693 41.1652 61.7069 43.1785C61.7201 43.3844 61.7334 43.5902 61.747 43.8023C61.761 44.0104 61.7749 44.2185 61.7893 44.4328C61.8818 45.8416 61.9596 47.2506 62.0113 48.6615C62.0869 50.5525 62.5703 52.4079 62.5594 54.2979C62.5592 54.4486 62.559 54.5992 62.5587 54.7544C62.5581 55.0828 62.5571 55.4111 62.5559 55.7395C62.5538 56.2619 62.5528 56.7843 62.552 57.3066C62.5499 58.6067 62.5461 59.9068 62.5422 61.2069C62.539 62.3014 62.5366 63.3958 62.535 64.4903C62.5339 65 62.5319 65.5097 62.5299 66.0195C62.526 67.5023 62.5361 68.9828 62.6043 70.4643C62.6091 70.5849 62.614 70.7055 62.619 70.8298C62.7725 73.6733 62.855 76.6814 63.3737 79.4886C63.5207 80.3398 63.4952 80.7539 63.0519 81.4945C62.9621 81.6514 62.8723 81.8084 62.7798 81.9701C62.5439 82.3312 62.5439 82.3312 62.3845 82.4906C61.4757 82.5744 60.6935 82.4643 59.8345 82.1718C59.8345 82.1718 58.6727 79.4828 58.7165 77.5047C58.7377 76.2829 58.5909 75.0939 58.4383 73.8837C58.3695 73.3097 58.3248 72.7336 58.28 72.1573C58.252 71.8231 58.252 71.8231 58.1642 71.5529C58.0432 71.0007 58.0214 70.4451 57.9923 69.8821C57.9856 69.7553 57.9789 69.6284 57.9719 69.4978C57.9114 68.2607 57.9034 67.0258 57.91 65.7875C57.9121 65.388 57.9131 64.9885 57.9139 64.5891C57.916 63.5953 57.9198 62.6016 57.9237 61.6078C57.9357 58.4794 57.9383 55.3531 57.8523 52.2255C57.8491 52.1071 57.846 51.9887 57.8428 51.8668C57.7997 50.2859 57.7068 48.7191 57.5192 47.1485C57.3286 45.5365 57.1126 43.9247 57.0554 42.3579C56.9831 40.6929 56.8374 39.0428 56.647 37.3874C56.626 37.1935 56.6051 36.9996 56.5835 36.7997C56.4073 35.417 55.9929 34.135 55.3508 32.895C55.14 32.4544 55.1537 32.1314 55.2126 31.6499Z" fill="currentColor"/>
<path fill-rule="evenodd" clip-rule="evenodd" d="M111.075 39.5565C114.114 39.5506 117.142 39.7286 120.076 40.5949C120.524 40.7249 120.931 40.7855 121.393 40.834C126.891 41.7146 136.295 48.824 133.785 55.2375C133.557 56.166 132.122 58.4906 131.235 59.3812C131.303 59.7402 131.373 60.0988 131.444 60.457L131.562 61.0622C131.776 62.1144 132.389 63.0395 132.59 64.1625C132.641 64.4395 132.641 64.4396 132.694 64.7222C132.926 65.9913 133.122 67.2636 133.303 68.541C133.435 69.4505 133.632 70.3088 133.944 71.175C134.168 71.8409 134.388 72.5078 134.602 73.1771L134.772 73.7057C135.066 74.8433 135.965 75.7913 135.896 77.0439C135.84 77.5406 135.776 77.9021 135.538 78.3469C134.412 79.2198 132.797 79.1437 131.971 78.058C130.792 75.8784 129.718 73.9922 129.163 71.3344C128.657 68.9272 128.052 66.6937 127.729 64.1625L127.659 63.5109C126.497 64.4617 125.441 65.4605 124.222 66.3738C124.083 66.4797 124.083 66.4798 123.94 66.5878C122.124 67.9421 119.791 69.3962 117.728 70.3781L117.4 70.5375C117.182 70.6439 116.963 70.7498 116.744 70.855C116.41 71.0173 116.079 71.1855 115.748 71.3543C115.262 71.5981 114.777 71.7979 114.261 71.9719C113.736 72.1565 113.24 72.3508 112.747 72.6094C111.685 73.162 110.537 73.5079 109.4 73.8744C108.599 74.1375 107.848 74.4666 107.085 74.8251C106.593 75.0436 106.096 75.186 105.575 75.3187L105.107 75.498C104.347 75.7152 103.506 75.942 103.011 75.9855C99.5871 76.2908 96.7002 76.9456 92.945 76.9424C92.8107 76.9425 92.6763 76.9426 92.5379 76.9427C92.1515 76.9427 91.7651 76.9413 91.3787 76.9393C91.263 76.9391 91.1472 76.9388 91.028 76.9386C88.9521 76.9194 87.0116 76.3466 84.9894 75.9849C84.1823 75.8121 83.5146 75.485 82.7948 75.0896L82.4309 74.8988C81.1796 74.2255 79.8526 73.2503 78.9599 72.2906L78.7009 72.0516C76.5495 69.7046 74.9405 65.2717 76.0911 61.9312C76.3501 61.4631 76.3501 61.463 76.5692 61.1344L76.8187 60.7976H75.9672C73.6404 60.7143 71.4305 60.5592 69.2679 59.6402C69.162 59.5956 69.0562 59.5509 68.9471 59.505C67.8272 58.9915 66.305 57.4454 66.0405 56.2336L65.9453 55.8078C65.8905 55.3919 65.9024 55.1487 66.0505 54.7594C66.9616 53.8482 68.4435 53.04 69.6016 52.4528C70.0383 52.2259 70.0384 52.2258 70.3823 51.9124C71.0424 51.4123 71.7752 51.1007 72.5251 50.7551C74.1166 50.0089 75.6745 49.214 77.2239 48.3844C77.6395 48.1646 78.0605 47.9557 78.4817 47.7469L79.0296 47.458C79.7625 47.0887 80.5261 46.7954 81.292 46.5027C81.7267 46.334 82.1312 46.1632 82.5278 45.9166C83.1208 45.5726 83.7496 45.3819 84.3985 45.167C85.5228 44.786 86.6175 44.3663 87.7056 43.892C89.2633 43.2144 91.0124 42.5653 92.6661 42.2883C93.7457 42.0979 94.7799 41.8263 95.8275 41.5062C96.8353 41.1994 97.8505 40.9506 98.8817 40.7344C98.993 40.7105 99.1044 40.6866 99.219 40.662C100.365 40.4233 101.518 40.2515 102.677 40.0869L103.247 40.0032C105.691 39.6538 108.111 39.5697 110.576 39.559C110.823 39.5578 110.823 39.5577 111.075 39.5565ZM110.454 58.3858C109.888 58.3868 109.321 58.3876 108.754 58.3867C108.374 58.386 107.994 58.3858 107.614 58.3859C107.429 58.3861 107.25 58.3862 107.07 58.3864C106.186 58.3847 105.311 58.3826 104.431 58.484C103.995 58.5388 103.569 58.5795 103.129 58.6093C102.807 58.6257 102.485 58.6421 102.162 58.6591C102.041 58.6655 101.924 58.6718 101.806 58.6781C100.06 58.769 98.3109 58.8478 96.5714 59.0351C95.7051 59.1308 94.8388 59.2191 93.9704 59.2935C93.8434 59.3043 93.7201 59.3147 93.5968 59.3252C93.0943 59.3682 92.5916 59.4111 92.089 59.4535C91.7244 59.4836 91.3597 59.5136 90.9952 59.5447C90.8805 59.5545 90.7691 59.5641 90.6577 59.5736C89.8185 59.6436 89.0949 59.9026 88.264 60.0013C86.7373 60.1892 85.1951 60.4409 83.7318 60.5492C83.4463 60.5797 83.1607 60.6096 82.8751 60.6388C82.2776 60.6787 82.2775 60.6787 81.7595 60.9576C80.6404 62.4315 80.6725 64.0719 80.777 65.8372C80.8363 66.6906 80.8591 67.4185 81.211 68.2098L81.5105 68.6972C83.2657 71.6323 86.5744 72.659 90.0084 72.8724C90.267 72.8883 90.5256 72.9044 90.7841 72.9207C92.1634 73.013 93.5226 73.1062 94.9042 73.0041C95.4046 72.9591 95.9029 72.9128 96.4047 72.8872C96.552 72.8819 96.695 72.8766 96.8379 72.8715C97.1109 72.861 97.3841 72.8508 97.6572 72.841C99.3835 72.7876 100.949 72.4281 102.615 71.9825C102.822 71.9266 103.029 71.8708 103.235 71.815C107.211 70.7524 111.383 69.2882 114.995 67.2658C116.362 66.502 117.727 65.7421 119.023 64.8623C119.42 64.5884 119.805 64.3282 120.231 64.1021C120.639 63.9061 121.033 63.7555 121.362 63.4385C121.598 63.1826 121.598 63.1825 121.878 62.9722L122.181 62.7505C122.413 62.5777 122.646 62.4051 122.878 62.2326L123.275 61.9393L123.665 61.6449C124.028 61.3741 124.028 61.374 124.313 61.1169L125.03 60.1641C124.746 60.0504 124.222 59.776 123.934 59.6707L123.516 59.5232C120.3 58.3827 120.299 58.3827 110.454 58.3858ZM110.855 43.2371C108.856 43.2349 106.961 43.4493 105.003 43.6542C103.929 43.7767 102.858 43.9119 101.791 44.082C101.662 44.103 101.537 44.1232 101.412 44.1435C100.335 44.3129 99.3371 44.7129 98.2653 44.8915C97.3225 45.0417 96.5711 45.3137 95.6798 45.5468C95.3694 45.6306 95.059 45.714 94.7484 45.797L94.2709 45.9209L93.8171 46.0448C92.3934 46.4208 90.801 47.1885 89.1351 47.7335L88.7619 47.8589C87.4728 48.2708 86.3905 49.0383 85.1075 49.457L84.648 49.6021C82.1714 50.4047 80.1471 51.585 77.7152 52.8992C75.9908 53.8353 74.2861 54.7333 72.5355 55.6085C72.1545 55.8887 72.0375 55.9406 72.0375 56.4951C72.0375 56.8529 75.2097 56.848 76.8226 56.8529C76.9365 56.8532 77.0469 56.8534 77.1574 56.8537C77.377 56.8553 77.5965 56.8567 77.8161 56.858L78.4436 56.8561C84.0916 56.8452 90.0351 55.6695 95.6834 55.226C96.0046 55.2025 96.3258 55.179 96.6469 55.1545C97.2292 55.1099 97.8115 55.0662 98.394 55.0238C98.7583 54.9974 99.1227 54.9709 99.487 54.9441C102.858 54.6953 106.226 54.4556 109.607 54.4268C109.784 54.4256 109.956 54.4243 110.128 54.4232C112.113 54.3987 113.968 54.5625 115.941 54.6451C116.245 54.6568 116.549 54.6691 116.853 54.6819C117.341 54.7024 117.828 54.7223 118.316 54.7419C118.807 54.7615 119.298 54.7813 119.789 54.802C119.947 54.8087 120.099 54.8152 120.252 54.8216C120.406 54.8274 120.555 54.8331 120.704 54.8387C120.845 54.8448 120.982 54.8506 121.118 54.8565C121.999 54.8917 122.948 55.274 123.826 55.5008C125.187 55.858 127.28 56.8935 128.297 56.8138C128.82 56.2262 129.189 55.5222 129.533 54.8185C130.849 51.1406 127.767 47.6043 124.681 46.0759C124.241 45.8619 123.809 45.6433 123.381 45.4054C122.768 45.0593 122.191 44.7387 121.523 44.5121L120.966 44.3826C117.833 43.4196 114.467 43.2388 111.236 43.2369C111.106 43.237 110.981 43.237 110.855 43.2371Z" fill="currentColor"/>
<path fill-rule="evenodd" clip-rule="evenodd" d="M253.298 45.957C253.43 45.9571 253.562 45.9571 253.697 45.9572C253.974 45.9577 254.251 45.9589 254.528 45.9609C257.227 45.9796 259.758 45.9168 262.297 46.8093C262.801 46.9775 263.312 47.1175 263.824 47.2588C266.035 47.8928 268.005 48.9031 269.867 50.2583C271.006 51.1554 271.881 52.0037 272.964 53.0336L273.357 53.4146L273.733 53.7739C274.358 54.4961 274.829 55.2039 275.395 56.0979C276.301 57.7108 276.86 59.7673 276.903 61.9312L277.387 61.9026C278.071 61.9336 278.581 62.1147 279.194 62.3895C281.473 63.3655 283.26 63.8522 284.872 65.9156L285.208 66.3371C285.889 67.2255 286.363 68.014 286.625 69.1031L286.706 69.425C286.758 69.6355 286.81 69.8464 286.86 70.0575C286.948 70.3941 287.057 70.7173 287.173 71.0455C287.37 71.6179 287.507 72.1863 287.631 72.7787C288.033 74.5677 288.675 76.2609 289.653 77.8158C289.853 78.2824 289.796 78.5039 289.653 78.9844C289.081 79.8199 288.901 79.8454 288.089 80.2133C287.402 80.3041 286.787 79.7565 286.224 79.4245L285.828 79.1437L284.872 77.8687C283.341 74.8403 283.218 71.4994 281.246 68.8939C280.422 67.7808 280.361 67.8604 278.951 67.04C278.152 66.5837 277.385 66.2444 276.454 66.2773C275.84 66.4827 275.617 66.9955 275.292 67.528C273.648 70.0354 270.662 71.2278 268.157 72.163C267.938 72.2456 267.719 72.3295 267.501 72.4147C266.709 72.721 265.91 72.9621 265.089 73.1771C264.958 73.2118 264.827 73.2465 264.691 73.2822C263.717 73.5315 262.759 73.7007 261.759 73.8115C261.283 73.8686 261.282 73.8686 260.845 74.0456C260.139 74.2609 259.459 74.2776 258.724 74.3027C258.575 74.3087 258.425 74.3145 258.271 74.3206C257.15 74.3626 256.031 74.3926 254.909 74.3625L254.294 74.3488C251.382 74.2512 248.547 73.7042 246.025 72.1867C245.657 71.9484 245.657 71.9484 245.168 71.8125C244.695 71.648 244.56 71.5311 244.231 71.175L243.773 70.8762C242.205 69.8098 240.603 66.8086 240.566 64.8L240.547 64.188C240.521 62.9796 241.134 61.9172 241.692 61.1203C239.835 60.2776 237.644 59.8277 236.169 58.3273C235.498 57.6691 233.553 56.3456 233.553 55.3969L232.028 55.1634C230.611 54.9423 229.601 54.689 228.005 54.3211C227.878 54.2922 227.75 54.2632 227.619 54.2335C226.83 54.0478 226.088 53.8223 225.345 53.4962C224.837 53.2779 224.321 53.0927 223.801 52.9066L223.257 52.7112C222.885 52.5854 222.51 52.4701 222.132 52.3638C221.702 52.2388 221.325 52.1024 220.923 51.9105C220.371 51.6593 219.816 51.4281 219.249 51.2133L218.823 51.0514C218.4 50.9309 218.053 50.9123 217.616 50.9344C217.294 51.5992 217.248 52.1909 217.257 52.9166C217.258 53.0354 217.258 53.1542 217.259 53.2766C217.326 58.0003 218.62 60.7819 220.514 65.0689C220.817 65.6221 221.151 65.9558 221.6 66.3937C221.814 66.7115 222.027 67.0302 222.238 67.35C222.576 67.7105 222.919 68.0235 223.303 68.3361C223.828 68.9744 225.564 70.8393 225.606 71.5224L225.604 71.952L225.606 72.379C225.584 72.7687 225.584 72.7688 225.425 73.2469C225.028 73.5573 224.587 73.7943 224.15 74.0437L223.652 74.3426C223.066 74.5717 222.836 74.562 222.238 74.3625C221.476 73.9361 220.802 73.5151 220.325 72.7687C219.091 71.535 217.709 69.7197 216.794 68.1992C215.245 65.5445 213.349 62.1849 211.915 59.1192L211.749 58.7736L211.586 58.4318C211.196 57.7487 210.747 57.2704 210.444 56.5125C209.951 55.5273 209.952 55.5355 209.368 54.6598C209.006 53.7153 209.076 52.5636 209.169 51.5719C209.542 51.1987 209.618 51.206 210.125 51.2033C210.971 51.2184 211.723 51.4531 212.516 51.7312L212.528 51.1137C212.537 50.8414 212.546 50.5691 212.555 50.2969L212.562 49.8916C212.705 46.2233 216.118 45.6003 219.05 46.3125C221.989 47.5638 224.651 48.9574 227.609 49.9426L228.123 50.111C228.473 50.2275 228.824 50.3441 229.175 50.4609C230.106 50.7661 231.018 51.0248 231.985 51.1906C232.278 51.2531 232.278 51.2531 232.438 51.4125C232.816 51.4791 232.816 51.4791 233.234 51.4125L233.508 51.128C233.96 50.6893 234.453 50.4401 235.017 50.1773C235.133 50.1233 235.248 50.0692 235.367 50.0135C238.135 48.7665 241.179 47.9492 244.152 47.3584C244.321 47.3245 244.49 47.2906 244.664 47.2557C246.158 46.9639 247.659 46.7343 249.166 46.5267C249.336 46.503 249.506 46.4794 249.681 46.4551C249.829 46.4351 249.977 46.4151 250.13 46.3945C250.632 46.3159 250.632 46.3159 251.213 46.1464C251.914 45.967 252.578 45.9503 253.298 45.957ZM247.606 68.5237L248.025 68.7254C248.243 68.8317 248.462 68.9361 248.682 69.0392C253.384 71.1066 260.197 70.6122 264.918 68.8051C265.4 68.6173 265.885 68.4681 266.383 68.3269C266.817 68.2092 267.154 68.0854 267.543 67.8569C267.94 67.6024 267.94 67.6023 268.363 67.4224C268.816 67.2316 269.26 67.032 269.7 66.8129C270.341 66.4083 270.889 66.1137 271.134 65.3785C270.676 65.1623 270.309 65.0569 269.802 65.005C268.764 64.9626 267.736 64.902 266.704 64.7757C263.079 64.3269 259.456 63.7626 256.192 63.5276L255.615 63.4859C254.618 63.4181 253.63 63.3614 252.651 63.1516C251.837 62.9741 251.021 62.8842 250.193 62.7977C249.803 62.7584 249.412 62.7186 249.022 62.6782L248.447 62.6187C247.808 62.5534 247.17 62.4868 246.531 62.4158L245.953 62.3504C244.821 64.6146 244.991 67.1927 247.606 68.5237ZM260.725 50.3574C259.259 50.1021 257.854 49.9986 256.369 50.062C256.109 50.0734 255.848 50.0832 255.588 50.0917C254.058 50.1404 252.532 50.226 251.006 50.3475C250.843 50.361 250.684 50.3742 250.525 50.3873C249.457 50.4725 248.424 50.5971 247.387 50.8754C246.753 51.0908 246.152 51.2542 245.489 51.3596C243.361 51.6922 239.687 52.421 238.144 53.7441C237.93 55.9247 242.616 57.4567 244.359 57.5691C244.648 56.9906 245.737 56.1941 246.434 56.0028L246.949 55.9355C247.793 55.8184 248.492 56.104 249.061 56.9814C249.176 57.429 249.176 57.429 249.001 57.9377L248.822 58.366L249.419 58.5055C251.114 58.9008 252.665 59.1185 254.409 59.3282C254.585 59.3498 254.757 59.371 254.928 59.392C255.602 59.4743 256.276 59.5573 256.95 59.641C262.253 60.3023 267.538 61.2189 272.887 61.0754C272.925 59.2303 269.7 54.7594 268.106 53.7441C266.686 52.144 263.328 50.8463 261.17 50.4331C261.019 50.4073 260.872 50.3824 260.725 50.3574Z" fill="currentColor"/>
<path fill-rule="evenodd" clip-rule="evenodd" d="M339.486 5.19852C340.082 4.88656 340.623 5.0599 341.261 5.17969L341.859 5.2793C342.554 5.57368 342.882 5.93434 343.173 6.61407C343.567 8.11746 343.547 9.72462 343.583 11.2692C343.605 12.025 343.653 12.7341 343.815 13.4734C344.077 14.7934 344.004 16.142 343.99 17.4814C343.989 17.7575 343.987 18.0337 343.986 18.3098C343.982 18.98 343.977 19.6501 343.97 20.3203C344.33 20.1932 344.69 20.0657 345.05 19.9381C345.152 19.9022 345.254 19.8663 345.358 19.8294C345.84 19.6583 346.304 19.4768 346.769 19.2645C349.318 18.2451 352.018 17.6938 354.638 16.8639C356.177 16.3872 357.731 15.984 359.294 15.5965C359.471 15.5521 359.647 15.5077 359.829 15.4619C359.986 15.4229 360.144 15.3839 360.306 15.3437C360.738 15.2306 360.738 15.2306 361.183 14.9016C361.47 14.841 361.759 14.7926 362.049 14.7522C362.713 14.6506 363.353 14.5257 364.002 14.3537C364.866 14.1298 365.735 13.9677 366.614 13.8171C368.463 13.5003 370.315 13.1757 372.14 12.74C372.871 12.5658 373.605 12.4186 374.345 12.2887C374.461 12.2682 374.578 12.2477 374.698 12.2266C376.33 11.9439 377.97 11.7104 379.609 11.4708C380.031 11.409 380.453 11.3468 380.874 11.2845C381.003 11.2659 381.131 11.2473 381.264 11.2282C381.76 11.1547 382.222 11.0762 382.698 10.9172C383.066 10.8733 383.435 10.8361 383.803 10.8026C383.911 10.7926 384.018 10.7826 384.129 10.7723C384.472 10.7404 384.816 10.7092 385.159 10.6781C385.501 10.6471 385.844 10.6158 386.187 10.584C386.498 10.555 386.809 10.5267 387.121 10.4985C387.608 10.4546 387.608 10.4546 387.949 10.3594C388.281 10.2787 388.589 10.2437 388.929 10.2202C389.055 10.2112 389.182 10.2022 389.312 10.1928C389.448 10.1837 389.584 10.1746 389.723 10.1651C389.864 10.1551 390.006 10.1451 390.151 10.1348C390.602 10.1029 391.053 10.0717 391.504 10.0406C391.953 10.0095 392.401 9.97819 392.85 9.94647C393.129 9.92678 393.408 9.90738 393.687 9.88841C394.276 9.84695 394.861 9.79865 395.447 9.72001C396.174 9.62494 396.9 9.58883 397.632 9.5569C397.866 9.5466 397.866 9.54656 398.104 9.53605C402.991 9.33015 407.875 9.29243 412.766 9.2934C413.278 9.29349 413.791 9.2933 414.304 9.29309C418.093 9.29253 421.882 9.32335 425.671 9.39504C425.928 9.39965 425.928 9.39967 426.191 9.40437C426.677 9.41329 427.163 9.42321 427.649 9.43348C427.791 9.43605 427.933 9.43861 428.08 9.44126C428.902 9.46017 429.696 9.53204 430.511 9.64219C430.772 9.66106 431.033 9.67657 431.294 9.68702C431.434 9.69287 431.573 9.69873 431.716 9.70476C431.862 9.71041 432.008 9.71606 432.158 9.72188C432.472 9.73515 432.786 9.74843 433.1 9.76172C433.591 9.78187 434.082 9.80178 434.573 9.82149C436.004 9.87949 437.311 10.0866 438.703 10.2181C438.891 10.2358 439.078 10.2536 439.271 10.2719C439.48 10.2909 439.689 10.3099 439.904 10.3295C440.065 10.3445 440.065 10.3445 440.23 10.3598C441.828 10.5085 443.427 10.638 445.028 10.7603C445.298 10.781 445.298 10.781 445.574 10.8022C446.477 10.8713 447.38 10.9393 448.284 11.0054C448.623 11.031 448.962 11.0566 449.3 11.0822C449.453 11.093 449.606 11.1037 449.763 11.1149C450.665 11.184 451.54 11.3068 452.428 11.4815C453.054 11.5972 453.684 11.6553 454.318 11.7141C455.368 11.8174 456.405 11.9523 457.447 12.1231C457.938 12.1943 458.425 12.2364 458.92 12.2719C459.587 12.3214 460.201 12.4236 460.849 12.5844C461.551 12.7275 462.262 12.7997 462.973 12.8779C463.804 12.9729 463.804 12.9728 463.98 13.1484C464.328 13.1972 464.676 13.239 465.026 13.2779C466.029 13.3998 466.988 13.6032 467.965 13.8599C469.219 14.1882 470.489 14.4315 471.764 14.6662C472.504 14.8055 473.201 14.9846 473.911 15.2328C474.479 15.4278 475.051 15.6083 475.624 15.7881C475.729 15.8215 475.835 15.855 475.943 15.8894C476.904 16.1908 477.872 16.4431 478.861 16.6348C479.521 16.7786 480.12 17.0072 480.738 17.2766C481.129 17.4273 481.513 17.5496 481.915 17.667C482.883 17.9522 483.829 18.2925 484.778 18.6369L485.292 18.8215C486.749 19.3481 488.184 19.8834 489.559 20.5992C490.634 21.1492 491.726 21.6474 492.836 22.1209C494.754 22.9505 497.198 24.7685 498.863 26.1076C499.182 26.3824 499.182 26.3825 499.52 26.526C499.976 26.7679 500.277 27.1243 500.636 27.4922L501.114 27.8807C501.605 28.2998 501.983 28.7453 502.389 29.2453L502.768 29.6238C503.211 30.0677 503.623 30.5298 504.033 31.0053C504.251 31.2588 504.475 31.5078 504.7 31.7555C505.311 32.4902 505.744 33.358 506.214 34.1859L506.467 34.5682C507.177 35.8746 507.905 37.9768 508.127 39.4453L508.209 39.9602C508.616 43.5637 507.437 47.168 505.417 50.1234C505.248 50.4022 505.078 50.6812 504.909 50.9602C504.409 51.7515 503.838 52.4215 503.199 53.103C502.902 53.432 502.648 53.7619 502.399 54.1277C501.488 55.3973 499.976 56.7817 498.684 57.7037C498.143 58.0949 497.61 58.4935 497.08 58.899C496.201 59.5578 495.304 60.1882 494.4 60.8115C494.199 60.9513 494.199 60.9513 493.994 61.0939C492.429 62.1652 490.949 62.8341 489.152 64.014C488.58 64.3724 487.993 64.6962 487.398 65.015C487.293 65.0715 487.189 65.1281 487.081 65.1862C486.332 65.5828 486.133 65.9016 485.775 65.9016L487.248 67.1766C487.906 67.7085 488.582 68.197 489.32 68.6109L489.66 68.8052C491.47 69.8313 493.228 70.7117 495.058 71.7686C495.568 72.0597 496.074 72.2763 496.633 72.4565C496.97 72.5953 496.97 72.5953 497.43 72.8692C498.333 73.3949 499.307 73.7737 500.267 74.1791L500.849 74.4266C501.91 74.878 502.974 75.3234 504.042 75.761C504.467 75.9448 504.877 76.1475 505.288 76.3606C506.004 76.7266 506.724 76.9761 507.489 77.2172C508.36 77.5105 509.202 77.8206 510.019 78.2432C510.848 78.67 511.701 78.9987 512.574 79.3233C512.971 79.4721 513.367 79.6243 513.762 79.7765C513.912 79.8341 514.062 79.8917 514.216 79.951C514.515 80.066 514.815 80.1811 515.114 80.2965C515.252 80.3495 515.391 80.4024 515.533 80.457C515.657 80.5045 515.78 80.552 515.908 80.6009C516.234 80.716 516.892 80.941 516.892 80.941C517.092 81.0422 518.969 81.942 519.761 82.3172C520.158 82.5053 520.76 82.9754 521.126 83.1838L521.495 83.3923C521.772 83.5564 522.043 83.7321 522.311 83.9109C522.67 84.15 523.176 84.517 523.427 84.8672C523.536 85.2457 523.536 85.2457 523.427 85.6641C523.062 86.0876 522.68 86.288 522.152 86.4609C519.94 86.6166 517.455 85.9491 515.458 85.0266C514.781 84.7875 513.747 84.4623 513.105 84.1506C512.504 83.8716 511.895 83.6344 511.274 83.4029C511.169 83.3631 511.063 83.3233 510.955 83.2823C510.285 83.0335 509.653 82.8243 508.964 82.6359C507.53 82.1578 505.276 81.2618 503.749 80.4539C503.303 80.2234 502.856 80.0455 502.383 79.8793C502.032 79.7533 501.688 79.6112 501.343 79.4684C500.461 79.1099 499.434 78.6144 498.525 78.3328C497.951 78.1133 497.634 78.0424 497.13 77.6953C496.782 77.547 496.781 77.547 496.442 77.4563C495.132 77.0455 493.946 76.4257 492.745 75.7677C492.096 75.414 491.437 75.1151 490.755 74.8266C490.32 74.6238 489.89 74.4123 489.46 74.199L489.127 74.0375C488.488 73.7206 487.958 73.3735 487.408 72.9141L486.91 72.675C486.333 72.2766 485.934 71.8781 485.934 71.8781C485.934 71.8781 485.616 71.7187 485.177 71.4797C484.561 71.2297 484.209 70.8312 483.742 70.3641C483.405 70.1089 483.064 69.8625 482.718 69.6201L482.467 69.4078L482.148 69.0891C481.928 68.8299 481.715 68.5643 481.511 68.2922C480.981 68.3552 480.576 68.4408 480.096 68.6807C479.631 68.9135 479.213 69.0194 478.709 69.1358C478.031 69.3338 477.396 69.6365 476.75 69.9202C475.989 70.2525 475.219 70.563 474.449 70.8721C474.317 70.9251 474.186 70.9781 474.051 71.0327C473.2 71.3731 472.342 71.6754 471.47 71.9578C471.239 72.0341 471.009 72.1107 470.778 72.1875C470.659 72.227 470.541 72.2664 470.419 72.3071C469.997 72.4491 469.576 72.5941 469.154 72.7391C467.392 73.3423 465.651 73.8815 463.83 74.2716C463.447 74.3612 463.07 74.4675 462.692 74.5744C457.228 76.0833 451.559 76.6 445.911 76.6195C445.788 76.6204 445.665 76.6212 445.538 76.622C442.225 76.6396 438.059 76.4276 435.023 74.966C434.913 74.915 434.803 74.864 434.689 74.8115C434.464 74.7075 434.24 74.6027 434.016 74.4969C433.73 74.3634 433.441 74.2371 433.151 74.1119C431.036 73.1903 429.336 72.2174 427.712 70.5932C427.442 70.3229 427.219 70.0429 427.005 69.7266L426.647 69.231C426.089 69.6469 424.416 70.1873 422.99 70.6828C421.945 71.2703 420.834 71.5591 419.683 71.8683C419.213 71.9964 418.746 72.1376 418.279 72.2766C413.969 73.496 409.63 74.2609 405.17 74.6179C404.707 74.6563 404.707 74.6563 404.318 74.7506C403.71 74.8598 403.111 74.8557 402.495 74.8589C402.358 74.8598 402.221 74.8608 402.08 74.8617C401.79 74.8632 401.5 74.8642 401.21 74.8649C400.777 74.8664 400.344 74.8713 399.911 74.8764C398.12 74.8872 396.423 74.734 394.662 74.4084C394.193 74.323 393.722 74.2512 393.251 74.1791C392.941 74.1294 392.631 74.0796 392.321 74.0297L391.846 73.9562C390.882 73.7996 389.989 73.5728 389.073 73.2328L388.491 73.023L387.968 72.8244L387.435 72.6246C386.215 72.094 384.736 71.3333 383.814 70.3641C382.669 69.4736 381.949 68.3975 381.115 67.2463L380.792 66.7974C380.48 66.377 380.48 66.377 380.118 66.0367C379.83 65.7422 379.83 65.7422 379.67 65.2641C378.527 64.5062 378.163 64.2879 376.762 64.1584L376.294 64.1164L375.843 64.0744C375.706 64.0618 375.569 64.0493 375.428 64.0364C375.077 63.9926 374.753 63.9165 374.411 63.8297C374.016 63.7979 373.621 63.7719 373.226 63.75C372.54 63.7119 371.895 63.6477 371.223 63.5109C370.892 63.4872 370.56 63.4677 370.227 63.4512C369.153 63.3789 368.112 63.213 367.056 63.0148C366.475 62.9062 365.894 62.8096 365.31 62.7172C365.142 62.6902 364.973 62.6632 364.799 62.6355C364.468 62.5829 364.137 62.5312 363.806 62.4805C362.952 62.343 362.156 62.164 361.344 61.8619C359.848 61.376 359.014 61.4274 357.328 60.9809L356.991 60.8968C356.439 60.7551 355.949 60.5865 355.445 60.3234C355.231 60.27 355.015 60.2238 354.798 60.184C354.242 60.0686 353.733 59.9099 353.204 59.7059C351.309 58.9873 349.703 58.7271 348.114 57.9328C348.114 58.7287 351.078 60.1333 351.939 60.6422L352.447 61.0207C353.138 61.5178 353.881 61.8731 354.648 62.2359L355.198 62.5005C356.968 63.346 358.762 64.1464 360.656 64.672C361.046 64.7929 361.407 64.9493 361.78 65.1147C363.754 65.9376 366.153 66.2479 368.297 66.2415C368.469 66.2417 368.469 66.2417 368.644 66.242C368.887 66.2421 369.129 66.2417 369.371 66.241C369.735 66.2402 370.1 66.2411 370.465 66.2421C371.611 66.2426 372.745 66.219 373.886 66.0985C375.439 65.9386 376.679 65.9995 378.077 66.6984C377.939 67.6645 376.909 68.8259 375.752 69.2347C374.64 69.5181 373.575 69.6312 372.43 69.6867C371.944 69.7208 371.508 69.789 371.034 69.8959C368.775 70.343 366.016 70.1994 363.807 69.5647C363.266 69.4109 362.757 69.3324 362.199 69.2684C361.066 69.1141 360.031 68.8177 358.952 68.4516C358.731 68.3786 358.511 68.3057 358.29 68.233C356.655 67.6924 355.025 67.1163 353.373 66.2203C353.179 66.1164 352.985 66.0127 352.79 65.909C351.211 65.0653 350.017 64.2956 348.542 63.2818L348.038 62.9369L347.767 62.7506C347.455 62.5404 347.141 62.3361 346.825 62.1326C346.662 62.0267 346.662 62.0268 346.496 61.9187C346.282 61.78 346.068 61.642 345.853 61.5051C344.433 60.5751 342.17 57.9328 340.783 57.9328C340.779 58.0348 340.775 58.1369 340.771 58.2421C340.752 58.7068 340.733 59.1715 340.713 59.6361L340.694 60.1227L340.674 60.5943C340.668 60.737 340.662 60.8797 340.656 61.0268C340.623 61.439 340.623 61.4391 340.548 61.7961C340.425 62.4411 340.389 63.0887 340.344 63.7432C340.334 63.8871 340.323 64.031 340.312 64.1793C340.28 64.6371 340.247 65.095 340.215 65.5529C340.193 65.8641 340.17 66.1753 340.148 66.4865C339.986 68.7528 339.753 70.736 339.462 73.2954C339.347 74.3639 339.324 75.4166 339.346 76.4905C339.366 77.5379 338.592 78.8251 337.595 79.4484C336.202 79.6263 334.818 77.5116 334.766 76.1514C334.761 76.0379 334.755 75.9244 334.749 75.8076C334.631 72.93 335.515 70.1086 335.62 67.232L335.638 66.7906C335.671 65.8958 335.894 65.0421 335.932 64.1285C335.985 62.9602 336.193 61.6917 336.395 60.5326C336.511 59.8074 336.537 59.0843 336.569 58.3512L336.59 57.9036C336.607 57.5415 336.623 57.1793 336.639 56.8172C336.144 56.9397 335.65 57.0627 335.155 57.1857C335.009 57.2221 334.862 57.2584 334.712 57.2958C333.959 57.4836 333.211 57.6783 332.465 57.893C331.841 58.0684 331.241 58.1618 330.594 58.2024C330.249 58.2399 330.249 58.2399 329.896 58.4063C329.47 58.5691 329.107 58.641 328.656 58.6948L328.197 58.7527L327.724 58.8094C326.773 58.9236 325.914 59.0597 325.005 59.3672C324.476 59.4607 323.944 59.5229 323.411 59.5863C323.084 59.6269 322.757 59.6676 322.43 59.7084C322.255 59.73 322.08 59.7517 321.9 59.774C321.304 59.8498 320.709 59.9304 320.113 60.0122C319.905 60.0406 319.697 60.069 319.482 60.0984C319.078 60.1539 318.673 60.2099 318.268 60.2663C314.799 60.7378 312.076 60.9647 308.717 60.9692C308.12 60.97 307.523 60.9711 306.926 60.9729C306.35 60.9747 305.775 60.9756 305.199 60.976C304.979 60.9763 304.759 60.9769 304.539 60.9778C304.232 60.9789 303.925 60.979 303.617 60.979C302.816 60.9806 302.16 60.7509 301.357 60.6721C300.275 60.5561 299.215 60.3797 298.15 60.1541C298.018 60.1263 297.885 60.0985 297.749 60.0699C297.07 59.922 296.528 59.6584 295.849 59.5564C291.077 58.7179 284.795 52.8184 287.392 47.5734L287.612 47.1202C288.111 46.1073 288.865 45.0716 289.673 44.1469L289.902 43.8786C294.667 38.3383 302.258 35.4373 309.456 35.4012C309.654 35.399 309.852 35.3969 310.056 35.3946C311.217 35.4003 312.257 35.536 313.381 35.8262C313.786 35.924 314.161 35.9817 314.575 36.015C315.483 36.0983 316.335 36.3736 317.205 36.6363L317.706 36.7833C319.215 37.231 320.681 37.7546 322.089 38.4642C322.535 38.6881 322.981 38.911 323.428 39.1322L324.078 39.4553L324.409 39.6187C324.995 39.9104 325.564 40.2142 326.12 40.5609L325.802 39.9234C324.955 37.687 325.002 35.4848 325.523 33.1898C325.555 33.0416 325.588 32.8934 325.621 32.7407C325.672 32.5328 325.672 32.5328 325.724 32.3208L325.815 31.944C326.938 29.5673 329.795 27.6806 332.017 26.2172C333.147 25.4361 333.925 24.9443 335.24 24.2868C335.491 24.1613 335.742 24.036 335.993 23.9106C336.367 23.7234 336.741 23.5356 337.114 23.3472C337.338 23.2347 337.561 23.1222 337.785 23.0098L338.128 22.8361C338.584 22.6071 339.023 22.3943 339.508 22.2328C339.517 20.7031 339.523 19.1734 339.527 17.6436C339.527 17.3969 339.528 17.1501 339.529 16.9034C339.538 13.6455 339.524 10.4013 339.246 7.15242C339.238 7.04015 339.23 6.92787 339.221 6.8122C339.199 6.52099 339.172 6.23006 339.146 5.93921C339.189 5.49844 339.189 5.4984 339.486 5.19852ZM478.414 64.2904C477.845 64.2751 477.317 64.2873 476.755 64.3782C475.658 64.6069 474.566 64.7992 473.454 64.9408C460.504 67.1766 452.675 66.6437 441.985 67.0424C439.592 67.1418 437.202 67.1732 434.807 67.17C434.64 67.1697 434.478 67.1694 434.317 67.1691C433.428 67.1675 432.538 67.1652 431.649 67.1616C431.456 67.1608 431.268 67.16 431.079 67.1591C431.079 68.5561 433.079 69.7099 434.267 70.1873C436.239 71.0219 438.137 71.624 440.263 71.8906C440.417 71.9082 440.566 71.9252 440.716 71.9423C440.862 71.9592 441.004 71.9756 441.146 71.9921C441.404 72.0193 441.661 72.0556 441.917 72.0998C442.649 72.3803 443.258 72.4585 444.034 72.4669C444.187 72.4668 444.335 72.4666 444.483 72.4664C444.976 72.4692 445.468 72.4708 445.961 72.4699C446.137 72.4693 446.308 72.4688 446.479 72.4683C450.994 72.4662 456.203 72.2873 460.504 70.765C461.026 70.5647 461.549 70.4047 462.089 70.2607C462.197 70.2324 462.302 70.2048 462.407 70.1773C462.801 70.0733 463.197 69.9703 463.592 69.8685C464.39 69.6779 465.167 69.4603 465.944 69.1974C469.617 67.9387 473.804 67.0624 477.29 65.4091L477.617 65.2466C477.937 65.0895 478.256 64.9311 478.573 64.7685L478.414 64.2904ZM392.142 65.2267C389.867 65.0269 389.867 65.0269 384.542 65.0873C384.542 65.7872 384.879 66.3525 385.498 66.7009L385.817 66.8404C386.145 67.1734 386.456 67.4787 386.833 67.7562C392.193 71.21 400.281 71.6694 406.436 70.4824C407.169 70.3391 407.905 70.2562 408.648 70.1742C413.027 69.6944 416.7 68.2546 420.736 67.1293L421.198 66.9998L421.62 66.8902L422.005 66.7806L422.349 66.6872C422.668 66.5009 423.22 66.4594 423.858 65.7665C423.085 65.7632 421.405 65.7187 420.632 65.717C420.313 65.7163 419.993 65.7156 419.674 65.7148C418.26 65.7086 416.837 65.6653 415.425 65.7665C414.665 65.8283 413.921 65.8949 413.158 65.8561C411.961 65.757 410.782 65.7084 409.581 65.7148C409.27 65.7176 408.959 65.7204 408.648 65.7221C408.195 65.7242 407.741 65.7264 407.287 65.729C402.22 65.7584 397.193 65.6616 392.142 65.2267ZM415.966 13.0632C415.313 13.0484 414.821 13.0082 414.284 13.4286L414.026 13.7685C411.038 17.5803 408.712 21.2615 404.554 24.0712C404.025 24.4277 403.507 24.7705 403.049 25.2161C402.084 26.2463 400.928 26.8458 399.962 27.5146C399.763 27.6616 399.564 27.8077 399.364 27.9529C397.909 28.869 396.768 29.8355 395.13 30.8316C394.535 31.1935 393.945 31.5585 393.367 31.9472C392.206 32.7306 391.032 33.4972 389.801 34.1685C389.054 34.566 388.297 34.9294 387.63 35.4535C387.277 35.7415 386.943 35.9432 386.544 36.1607C386.301 36.2919 386.058 36.4246 385.817 36.5591C385.235 36.9554 384.667 37.2985 384.034 37.605C382.668 38.2451 381.358 39.0023 380.03 39.7168C379.173 40.1722 378.32 40.6331 377.47 41.1013C377.102 41.3074 376.747 41.4941 376.356 41.6529C376.035 41.7793 375.719 41.9167 375.405 42.0588C373.813 42.7985 372.825 43.2967 371.089 44.1002L370.686 44.2888L370.27 44.4775L369.875 44.6624C367.803 45.621 365.775 46.6816 363.575 47.624C363.469 47.6686 363.367 47.712 363.265 47.7552C363.068 47.8392 362.87 47.923 362.673 48.0067C362.064 48.2631 362.067 48.41 361.321 48.6517L360.845 48.831C359.951 49.1649 359.723 49.3397 358.773 49.6777C358.425 49.8161 358.08 49.9484 357.723 50.0624C357.133 50.2458 356.642 50.4303 356.104 50.7435C355.667 51.0084 355.248 51.1672 354.759 51.3113C353.662 51.6107 353.662 51.6107 351.295 52.4415C350.446 52.7404 349.598 53.0409 348.744 53.3278L348.364 53.4529V53.931C349.348 54.412 350.35 54.7585 351.399 55.07L351.97 55.2359C353.415 55.6677 354.867 56.2519 356.036 56.476L356.372 56.5408C356.788 56.6177 357.195 56.7042 357.608 56.7998C357.946 56.9726 358.238 57.1167 358.608 57.2106C358.741 57.2354 358.87 57.2595 358.999 57.2835L359.426 57.3654C359.723 57.4203 360.02 57.4755 360.317 57.531L360.742 57.6122C360.973 57.655 361.204 57.7016 361.433 57.756C361.609 57.9326 361.609 57.9326 362.545 58.0832C363.339 58.2073 364.133 58.3289 364.921 58.4844C365.469 58.6017 366.011 58.7063 366.566 58.7821C367.603 58.9133 368.634 59.0572 369.664 59.2309C371.449 59.5335 374.75 60.6601 376.414 59.8279L376.494 59.2502C376.604 58.2447 376.763 57.5403 377.46 56.7798C379.411 54.8245 381.547 53.2093 383.486 51.7296C388.593 48.7365 388.593 48.7365 394.35 47.1529C394.497 47.1105 394.639 47.0693 394.782 47.0281C395.581 46.7955 396.372 46.5875 397.19 46.4335C397.586 46.3646 397.899 46.296 398.261 46.1177C398.821 45.9055 398.821 45.9055 399.421 45.8365L399.742 45.8029L400.364 45.7332C400.615 45.7055 400.866 45.6754 401.117 45.6435C402.631 45.3906 404.079 45.2799 405.612 45.2812C406.01 45.2832 406.409 45.2849 406.807 45.2832C408.156 45.2764 409.465 45.2733 410.79 45.5596C411.028 45.614 411.268 45.6633 411.509 45.7067C413.252 45.9967 415.002 46.2943 416.706 46.7691C417.134 46.895 417.555 46.9951 417.991 47.0878C418.211 47.133 418.43 47.1817 418.648 47.2373L418.808 47.3966C419.299 47.5271 419.769 47.6379 420.225 47.8667C421.54 48.5859 422.561 48.9323 423.714 49.5451C425.208 50.3233 426.544 51.1682 427.792 52.3074C428.887 53.3435 429.263 53.664 430.083 54.8972C430.4 55.3411 430.4 55.3411 430.761 55.6841C431.294 55.759 431.702 55.6872 432.229 55.5795C433.62 55.2087 434.626 55.0326 436.06 54.5087C436.696 54.2741 437.327 54.1384 437.992 54.0107C438.566 53.9019 439.131 53.7921 439.695 53.6409C441.676 53.0622 444.123 52.6973 446.081 53.4859L446.379 53.6123C447.91 54.0767 449.123 55.4247 449.308 56.75C449.291 57.3028 449.291 57.3028 448.9 57.7361C447.63 58.2244 447.63 58.2244 446.22 58.0748V57.5966C446.021 57.1683 446.021 57.1683 445.583 56.7998C443.507 56.4277 440.941 57.1952 438.949 57.9851C437.258 58.5177 433.715 59.0193 432.514 60.306C432.396 61.0445 432.384 61.8375 432.229 62.4767C433.596 62.4924 435.726 62.4098 437.093 62.4268C437.794 62.4355 438.495 62.4443 439.196 62.4524C439.879 62.4602 440.561 62.4681 441.244 62.4767C441.507 62.4801 441.771 62.4835 442.035 62.4868C443.386 62.5014 444.734 62.5208 446.083 62.597C454.959 63.111 464.04 62.4601 472.567 59.9175C473.298 59.6981 474.013 59.5807 474.768 59.4892C475.134 59.4473 475.499 59.4021 475.864 59.3498C476.02 59.1587 476.02 59.1587 476.314 59.1697C476.442 59.1695 476.567 59.1694 476.691 59.1692L477.108 59.1686L477.547 59.1705C479.8 59.1606 481.959 59.5613 482.924 61.9272L483.036 62.2185L483.404 62.2484C484.842 62.1481 487.615 60.0904 488.853 59.2701C489.286 58.9831 489.681 58.732 490.163 58.5379C491.113 58.1604 493.236 56.481 493.236 56.481C494.62 56.0203 500.374 50.3457 502.051 47.8773L502.29 47.5261C502.459 47.27 502.628 47.0143 502.798 46.7591C505.21 43.4832 504.033 35.3812 500.726 31.9373C500.726 31.3774 495.616 27.5776 494.74 27.0863C493.882 26.5362 492.992 26.0657 492.06 25.6519C491.603 25.4504 491.165 25.244 490.73 24.9976C489.988 24.565 489.326 24.2379 488.484 24.0482C487.722 23.8831 487.033 23.6311 486.323 23.3111C482.685 21.6302 478.736 20.6673 474.698 19.3666C472.563 18.6615 470.263 18.1605 468.074 17.6656C467.942 17.6377 467.814 17.6106 467.686 17.5835C466.82 17.3949 465.972 17.2377 465.086 17.1752C464.681 17.1519 464.299 17.1309 463.903 17.0419C463.426 16.9058 462.984 16.7995 462.489 16.7518C460.939 16.648 459.423 16.5053 457.924 16.0794C456.202 15.5841 456.202 15.5841 452.446 15.2826C449.852 15.0778 447.343 14.6722 444.736 14.4407C444.375 14.408 444.014 14.3754 443.652 14.343C443.46 14.3257 443.273 14.309 443.086 14.2922C436.123 13.6674 429.143 13.236 422.151 13.1417C421.738 13.1364 421.326 13.1304 420.913 13.1234C420.131 13.1096 419.349 13.0976 418.566 13.0898C418.262 13.0871 417.957 13.0842 417.652 13.0812C417.222 13.0739 416.791 13.0669 416.361 13.0646C416.161 13.0639 416.161 13.0638 415.966 13.0632ZM409.059 49.1286C408.799 49.1283 408.539 49.1281 408.278 49.128C407.871 49.129 407.464 49.1299 407.056 49.1291C406.79 49.1284 406.524 49.128 406.257 49.1281C406.126 49.1283 405.999 49.1284 405.871 49.1286C405.025 49.1263 404.201 49.1651 403.361 49.2673C403.129 49.2966 402.897 49.3245 402.665 49.3516C402.447 49.3767 402.23 49.4024 402.012 49.4287L401.685 49.4685C401.281 49.5157 400.881 49.5684 400.479 49.6279C400.171 49.798 400.171 49.7981 399.847 49.8589C399.655 49.8953 399.654 49.8953 399.466 49.9311C399.18 49.9865 398.893 50.0415 398.607 50.096C397.875 50.2346 397.156 50.3667 396.446 50.5922C396.023 50.7492 396.023 50.7492 395.6 50.8456C394.739 51.0402 393.9 51.2786 393.065 51.5654C392.886 51.6282 392.886 51.6282 392.71 51.6898C391.917 51.9638 391.166 52.2753 390.42 52.6593C390.149 52.8002 389.877 52.9381 389.605 53.0756L389.134 53.3134C388.826 53.4689 388.518 53.6219 388.207 53.7716C387.805 53.9243 387.461 54.0545 387.111 54.3052C386.745 54.5906 386.361 54.8395 385.971 55.0893C384.371 56.1063 382.127 56.8714 382.137 58.9666L382.141 59.3C382.144 59.6885 382.147 60.0769 382.151 60.4654C382.566 60.6518 382.928 60.7814 383.38 60.8445C383.54 60.8545 383.695 60.8641 383.851 60.8738L384.394 60.9099C384.758 60.9315 385.122 60.9538 385.485 60.9771L386.042 61.0132C386.64 61.0506 387.238 61.089 387.836 61.137C390.991 61.398 394.144 61.5337 397.308 61.6409C397.752 61.6559 398.195 61.6709 398.639 61.6861C407.541 61.9923 416.435 62.0859 425.342 62.0591L425.661 61.4216C426.013 60.4643 426.638 59.5145 427.175 58.6425C427.504 58.0805 427.627 57.8077 427.464 57.1683C427.153 56.6214 426.74 56.5048 426.384 55.9767L426.079 55.5845C425.672 55.0531 425.285 54.6432 424.819 54.3033L424.306 53.9908C423.475 53.484 422.622 53.0399 421.746 52.6162C419.413 51.5268 417.643 50.4882 414.94 49.8593C414.815 49.8314 414.695 49.8044 414.574 49.7773C413.681 49.5765 412.81 49.4232 411.895 49.3589C411.596 49.3454 411.297 49.3293 410.998 49.3091C410.472 49.149 409.975 49.1301 409.426 49.1277C409.301 49.128 409.18 49.1283 409.059 49.1286ZM319.606 41.5429C314.579 39.3588 307.898 38.6007 302.873 40.5335C302.477 40.7067 302.477 40.7067 302.101 40.8069C301.46 40.9851 300.902 41.1643 300.313 41.4798C296.721 43.5461 290.269 47.4833 291.786 52.4966C293.011 55.0905 297.135 56.4423 299.638 56.8601C300.129 56.9418 300.613 57.0349 301.1 57.1384C302.279 57.3935 303.456 57.4556 304.658 57.4594C304.834 57.459 305.005 57.4587 305.176 57.4584C305.547 57.4587 305.918 57.4589 306.289 57.459C306.866 57.458 307.444 57.4571 308.021 57.458C308.401 57.4586 308.78 57.459 309.159 57.4589C309.346 57.4587 309.527 57.4586 309.708 57.4584C311.392 57.4616 313.065 57.4172 314.726 57.1185C315.457 56.9866 316.176 56.9168 316.917 56.8695C318.683 56.775 320.409 56.3243 322.167 56.1523C324.917 55.8738 327.103 55.3052 330.121 54.6516C330.469 54.5748 330.817 54.4978 331.166 54.4228C332.565 54.1232 333.972 53.8549 335.295 53.2935C335.295 52.9748 335.295 52.9747 335.01 52.6411L334.628 52.2576C331.157 48.7112 325.563 43.9193 320.315 41.8528C320.202 41.8028 320.091 41.7543 319.981 41.7058C319.853 41.6504 319.73 41.5966 319.606 41.5429ZM409.245 13.2904C405.087 13.255 400.94 13.388 396.788 13.5883C396.641 13.5954 396.498 13.6022 396.356 13.6091C395.939 13.6287 395.523 13.6485 395.107 13.6694C394.976 13.676 394.85 13.6824 394.723 13.6888C394.303 13.7085 393.886 13.7347 393.467 13.7685C392.997 13.946 392.997 13.9461 392.514 13.9679C391.088 14.044 389.675 14.1756 388.257 14.3445C388.138 14.3587 388.024 14.3724 387.909 14.3861C386.472 14.5554 385.038 14.7236 383.616 14.9937C382.849 15.142 382.104 15.2422 381.325 15.2925C380.808 15.3149 380.404 15.3605 379.91 15.5204C379.46 15.6903 379.46 15.6903 379.046 15.7414C378.699 15.7695 378.353 15.7968 378.008 15.8404C377.698 16.0184 377.697 16.0185 377.353 16.037C376.313 16.1083 375.299 16.2519 374.273 16.4331L373.695 16.5377C372.656 16.7181 371.629 16.8929 370.622 17.21C370.031 17.3981 369.465 17.5128 368.849 17.5817C366.897 17.773 364.956 18.3228 363.046 18.7809C362.827 18.8378 362.606 18.891 362.385 18.9401C362.269 18.9647 362.158 18.9885 362.046 19.0123C361.792 19.0674 361.537 19.1224 361.283 19.1773C360.647 19.3124 360.022 19.437 359.412 19.6666C359.029 19.8373 359.029 19.8373 358.561 19.9785C357.91 20.1745 357.257 20.3666 356.612 20.5818C356.155 20.7389 355.698 20.8931 355.234 21.0282C354.161 21.3343 353.07 21.5938 352.059 22.0759C351.687 22.2556 351.35 22.386 350.949 22.4924C350.126 22.6821 349.359 22.8846 348.583 23.2214C347.754 23.5863 346.915 23.8668 346.053 24.1378C345.925 24.1761 345.801 24.2134 345.677 24.2505C345.556 24.2887 345.438 24.3256 345.321 24.3626C344.939 24.478 344.681 24.6184 344.353 24.8485C343.99 25.3392 343.953 25.6895 343.898 26.2877C343.889 26.4309 343.88 26.57 343.87 26.709C343.741 28.3096 343.68 29.9119 343.633 31.5167C343.551 34.3631 343.439 37.2002 343.147 40.0336C343.132 40.1697 343.118 40.3018 343.104 40.4339C343.013 41.3223 342.926 42.2113 342.786 43.0935C342.627 43.6433 342.473 44.1563 342.404 44.7248C342.388 44.9903 342.388 44.9904 342.372 45.2507L342.333 45.8412C342.31 46.243 342.285 46.6448 342.26 47.0464L342.222 47.6413C342.161 48.6473 342.091 49.6526 342.018 50.6579C342.003 50.8621 342.004 50.8622 341.989 51.0623C342.417 51.069 342.782 51.063 343.202 50.9689C343.894 50.7666 344.586 50.568 345.286 50.3949C346.033 50.2116 346.584 49.9319 347.552 49.6472C347.696 49.6034 347.836 49.5608 347.975 49.5183C348.873 49.2487 349.74 48.9732 350.585 48.5621C351.211 48.2525 351.804 48.0815 352.488 47.9345C353.02 47.8338 353.413 47.745 353.883 47.4732C354.239 47.2286 354.239 47.2286 354.595 47.132C355.036 47.0417 355.441 46.9638 355.85 46.7679C356.171 46.5952 356.171 46.5952 356.511 46.4572L356.88 46.3109C357.175 46.1933 357.471 46.0773 357.767 45.9623L358.326 45.7549L358.893 45.5439C359.674 45.2575 360.005 44.849 360.795 44.6873C361.197 44.4442 361.57 44.2177 362.008 44.0454C362.682 43.8182 363.341 43.5908 363.973 43.2628C365.05 42.7423 365.05 42.7422 366.159 42.2892C366.667 42.0827 366.808 41.911 367.42 41.6317C370.172 40.1823 372.412 39.6666 374.89 37.9636C381.519 34.0025 388.272 29.8344 395.061 26.1998C395.515 25.8343 395.84 25.5694 396.386 25.3531C396.887 25.1555 397.231 24.8858 397.631 24.5263C397.982 24.2029 398.289 23.9432 398.696 23.6896C399.045 23.4904 399.045 23.4904 399.284 23.2513L399.523 23.0123C399.985 22.7448 400.338 22.5162 400.719 22.1357L401.117 21.7373C403.436 20.3461 408.879 15.3888 409.245 13.2904ZM339.758 27.156C339.28 27.156 339.28 27.156 338.884 27.3303L338.453 27.5544C335.543 29.0533 330.039 32.2026 330.006 35.7957L330.006 36.1806C330.005 37.8356 330.345 39.4776 331.159 40.8174C331.372 41.1494 331.583 41.4823 331.789 41.8185C332.402 42.9173 332.998 43.9091 333.863 44.8292C334.184 45.1703 334.485 45.5241 334.787 45.8826C335.551 46.7971 336.784 48.0191 338.005 48.1935C338.057 47.8214 338.109 47.4495 338.164 47.0779C338.39 45.7708 338.536 44.4752 338.642 43.1533C338.698 42.4015 338.743 41.6526 338.882 40.9108C339.082 39.9338 339.154 39.0147 339.148 38.0169L339.14 37.4855C339.113 34.0748 339.823 30.9279 339.758 27.156Z" fill="currentColor"/>
<path fill-rule="evenodd" clip-rule="evenodd" d="M183.508 47.8564C187.019 47.8408 189.832 48.1223 192.883 49.3207C194.681 50.016 195.989 50.6869 197.554 51.7512C200.411 53.7946 202.851 57.6308 203.362 61.0466C203.419 61.5103 203.446 61.9435 203.431 62.4094C204.432 62.9026 205.469 63.4793 206.479 63.8836C209.285 65.0223 211.063 70.2404 212.864 70.8064C213.608 71.1535 214.123 71.6895 214.428 72.45C214.465 72.8553 214.465 72.8553 214.458 73.2768L214.455 73.702C214.38 74.6527 212.017 75.1242 211.255 74.807C210.751 74.5154 210.361 74.2004 209.936 73.8047L209.53 73.4311C208.602 72.5492 207.115 70.8569 206.619 69.7406C205.709 68.03 203.928 67.1438 202.156 66.5531C202.156 66.705 201.577 67.5353 201.259 68.1245C199.97 70.1371 196.987 72.4426 196.259 72.7687C195.993 72.888 195.726 73.0063 195.456 73.1174C195.151 73.2438 194.85 73.3779 194.55 73.5152C191.418 74.9311 188.427 75.5747 185.004 75.5578C184.863 75.5577 184.723 75.5577 184.579 75.5577C182.434 75.5519 180.451 75.3861 178.409 74.6812C178.286 74.6417 178.163 74.6021 178.036 74.5614C176.721 74.1374 175.564 73.5536 174.425 72.7687C174.056 72.5502 173.683 72.3407 173.309 72.1312L172.444 71.3203L172.034 72.1312L171.556 72.6094C170.815 73.0456 170.211 73.1595 169.365 73.1373C169.253 73.1356 169.142 73.1339 169.027 73.1322C167.131 73.0839 166.75 72.6077 165.323 71.8299C164.211 71.1764 163.103 69.9576 162.313 68.9437L162.064 68.7146C161.476 68.0761 160.58 66.8481 160.256 66.0283C160.068 65.5645 159.844 65.1384 159.603 64.7004L159.354 64.2459C158.753 63.1907 158.131 62.4291 157.372 61.4531C157.377 61.5723 157.382 61.6915 157.387 61.8142C157.434 63.0211 157.476 64.2281 157.512 65.4355C157.524 65.8487 157.539 66.2616 157.554 66.6747C157.575 67.2218 157.589 67.7688 157.601 68.3162C157.608 68.4827 157.616 68.6492 157.623 68.8208C157.63 69.2548 157.628 69.6362 157.531 70.0594C156.984 70.8422 156.825 70.811 156.097 71.175C155.509 71.469 154.826 71.412 154.184 71.3344C153.593 70.912 152.476 69.8836 152.142 69.2725C151.001 67.2304 149.507 65.081 148.706 62.8875C148.184 61.4882 147.297 59.7617 146.705 58.3908C146.386 59.5266 146.293 59.7656 146.196 60.6662C146.182 60.7902 146.168 60.9142 146.154 61.0419C146.013 62.5358 146.04 64.0327 146.051 65.5313C146.063 67.148 146.026 68.7581 145.954 70.3735C145.91 71.3546 145.893 72.3299 145.908 73.3121C145.887 74.0905 145.694 74.6664 145.259 75.3187L144.622 75.7969C143.627 75.9035 143.154 75.7571 142.368 75.1432C141.624 74.3835 141.316 73.6306 141.096 72.6193C141.046 72.402 140.995 72.1847 140.945 71.9675C140.921 71.861 140.896 71.7546 140.871 71.6449C140.648 70.713 140.354 69.7987 140.07 68.884C139.544 67.1658 139.312 65.4161 138.725 63.6844L138.588 63.2567C138.381 62.5948 138.381 62.5947 138.093 61.966C137.906 61.5638 137.818 61.1884 137.728 60.754L137.625 60.2612L137.52 59.7498C137.45 59.4137 137.38 59.0777 137.31 58.7419C136.938 56.9309 135.912 55.4841 136.175 53.4844C136.548 53.1112 136.624 53.1185 137.131 53.1158C137.963 53.1387 138.777 53.2551 139.522 53.6437C140.136 54.8476 140.48 54.9314 140.696 56.4596C141.062 58.3848 141.79 60.1979 142.561 61.9969L142.379 59.8967C142.359 58.9573 142.459 58.0917 142.628 57.1687C142.988 54.9729 143.309 53.3444 143.825 50.9344L143.94 50.3666L144.054 49.8486L144.153 49.3873C144.303 49.0219 144.303 49.0219 144.606 48.8139C149.145 47.3122 148.724 53.7866 150.031 56.0742C151.129 58.0014 151.605 59.879 152.75 61.8142V60.4969C152.756 60.4067 152.761 60.3165 152.767 60.2236C152.974 57.0113 153.464 53.876 154.494 50.8192C154.643 50.356 154.752 49.9079 154.842 49.4303C155.136 48.2343 157.03 48.5166 157.989 48.8824C159.302 49.67 159.933 50.7608 160.012 52.1496L160.032 52.4908C160.049 52.7688 160.065 53.0469 160.081 53.325C160.916 53.0646 161.714 52.7676 162.509 52.4061C164.071 51.7092 165.638 51.0667 167.281 50.5876C167.659 50.4775 168.028 50.357 168.399 50.2271C171.292 49.2521 174.298 48.6272 177.294 48.0656C177.428 48.0371 177.563 48.0086 177.702 47.9792C178.498 47.8731 179.289 47.877 180.092 47.8739C180.272 47.873 180.453 47.872 180.639 47.8711C181.022 47.8696 181.406 47.8686 181.789 47.868C182.362 47.8664 182.935 47.8615 183.508 47.8564ZM189.195 64.8184C185.613 64.7716 182.031 64.7829 178.448 64.837C178.331 64.8388 178.216 64.8406 178.102 64.8423C177.43 64.8522 176.759 64.8622 176.088 64.8744C175.779 64.8802 175.779 64.8802 175.477 64.8859C175.278 64.8892 175.085 64.8922 174.892 64.8954C174.713 64.8992 174.538 64.9029 174.364 64.9066C173.997 64.9137 173.241 64.9453 173.241 64.9453C173.241 65.5828 173.368 65.8409 173.609 66.268L173.878 66.6951C174.745 68.1932 175.959 69.1921 177.475 70.0009L177.862 70.2013C179.937 71.3158 182.082 71.5333 184.394 71.5448C184.517 71.5452 184.636 71.5457 184.755 71.546C186.985 71.5647 188.964 71.1968 191.091 70.5201C193.083 69.7266 196.021 67.8247 196.81 67.0294L197.097 66.705C197.485 66.2739 197.662 65.9829 197.784 65.4201C195.245 64.9952 192.749 64.8549 190.177 64.8285C189.849 64.8255 189.522 64.8224 189.195 64.8184ZM163.917 63.647C163.895 64.085 164.117 64.546 164.315 64.9419C165.572 67.775 168.624 69.8002 171.328 70.0009C171.328 70.0009 171.009 69.5638 170.822 69.2706C170.101 68.3121 169.76 67.3566 169.415 66.2169C169.291 65.779 169.159 65.3616 168.985 64.9413C168.667 64.4532 168.331 64.3472 167.777 64.216L167.344 64.1451C166.972 64.0835 166.6 64.0238 166.228 63.9658C165.412 63.8581 164.742 63.6883 163.917 63.647ZM179.217 52.0326C178.676 52.1872 178.203 52.2401 177.643 52.2816C177.107 52.3142 176.739 52.5297 176.254 52.5736C173.952 52.9115 171.824 53.3953 169.688 54.3273C169.235 54.526 168.782 54.7008 168.31 54.8515C167.958 54.9619 167.617 55.0787 167.273 55.2132C165.557 55.9129 164.699 56.314 163.283 57.0193L162.851 57.2322L162.416 57.4476L162.084 57.6107V58.2482L162.403 58.5669C164.461 59.9234 166.679 60.3484 169.097 60.1607C169.256 60.0013 169.256 60.0013 169.346 59.5929L169.416 59.2044L172.125 59.5232C172.125 60.0013 172.125 60.0013 172.343 60.3426C172.868 60.7131 172.868 60.7132 173.903 60.7493C174.061 60.7515 174.214 60.7535 174.367 60.7555C174.877 60.7698 175.387 60.7826 175.897 60.7909C176.078 60.7934 176.253 60.7958 176.428 60.7982C177.48 60.8158 178.533 60.8296 179.585 60.8365C180.16 60.8398 180.736 60.8432 181.311 60.8474C182.865 60.8592 184.418 60.8698 185.971 60.8799C187.123 60.8874 188.275 60.8951 189.427 60.9039C190.017 60.9084 190.607 60.9127 191.197 60.916C191.568 60.9181 191.939 60.9205 192.31 60.9233C192.57 60.9253 192.57 60.9254 192.824 60.9274C194.978 60.9362 197.018 61.3219 199.219 61.4357C199.22 61.3363 199.221 61.2397 199.222 61.1432C199.223 61.0117 199.224 60.8841 199.225 60.7565C199.23 60.1779 199.191 59.6471 199.032 59.0855C198.014 56.314 196.517 55.5544 194.474 54.0571C190.692 51.0459 183.561 50.7916 179.217 52.0326Z" fill="currentColor"/>
</svg>